<?xml version="1.0" standalone="no"?>
<!DOCTYPE svg PUBLIC "-//W3C//DTD SVG 20010904//EN"
 "http://www.w3.org/TR/2001/REC-SVG-20010904/DTD/svg10.dtd">
<svg version="1.0" xmlns="http://www.w3.org/2000/svg"
 width="286.000000pt" height="117.000000pt" viewBox="0 0 286.000000 117.000000"
 preserveAspectRatio="xMidYMid meet">

<g transform="translate(0.000000,117.000000) scale(0.100000,-0.100000)"
fill="#000000" stroke="none">
<path d="M160 1045 c0 -9 -9 -15 -25 -15 -16 0 -25 -6 -25 -15 0 -8 9 -15 20
-15 19 0 20 -7 20 -230 0 -223 -1 -230 -20 -230 -11 0 -20 -4 -20 -10 0 -5 11
-10 25 -10 l25 0 0 -195 0 -195 1280 0 1280 0 0 200 c0 196 0 200 25 236 14
20 25 43 25 50 0 23 -18 16 -34 -14 -15 -26 -15 -26 -16 36 0 60 1 62 26 62
26 0 26 2 21 46 -2 25 -14 59 -26 75 -18 24 -21 42 -21 134 l0 105 -1280 0
c-1131 0 -1280 -2 -1280 -15z"/>
</g>
</svg>
